# xmcd CD database file
#
# Track frame offsets:
#	150
#	51083
#	84848
#	131636
#	159115
#	187017
#	208127
#	240655
#	286180
#
# Disc length: 3948 seconds
#
# Revision: 0
# Processed by: cddbd v1.5.2PL0 Copyright (c) Steve Scherf et al.
# Submitted via: CDex 1.50
#
DISCID=740f6a09
DTITLE=Rainer Pusch - Horace Parlan - In Between Those Changes
DYEAR=1995
DGENRE=Jazz
TTITLE0=Yaounde
TTITLE1=Norma
TTITLE2=In Between Those Changes
TTITLE3=Valse a mes femmes
TTITLE4=Love and Peace
TTITLE5=The Message
TTITLE6=Arrival
TTITLE7=Jean qui sait
TTITLE8=Little Waltz To Say Good Bye
EXTD=YEAR: 1995
EXTT0=
EXTT1=
EXTT2=
EXTT3=
EXTT4=
EXTT5=
EXTT6=
EXTT7=
EXTT8=
PLAYORDER=
